<?xml version="1.0" encoding="utf-8"?>
<!-- Generator: Adobe Illustrator 17.0.0, SVG Export Plug-In . SVG Version: 6.00 Build 0)  -->
<!DOCTYPE svg PUBLIC "-//W3C//DTD SVG 1.1//EN" "http://www.w3.org/Graphics/SVG/1.1/DTD/svg11.dtd">
<svg version="1.1" id="Layer_1" xmlns="http://www.w3.org/2000/svg" xmlns:xlink="http://www.w3.org/1999/xlink" x="0px" y="0px"
	 width="286px" height="82px" viewBox="0 0 286 82" enable-background="new 0 0 286 82" xml:space="preserve">
<path fill="#C91A09" d="M25.421,5.352c0.017-2.893-3.918-4.302-7.488-4.703c-3.828-0.429-7.691,1.246-7.691,2.732v13.932
	l15.196,2.884V5.355L25.421,5.352z"/>
<polygon points="101.395,81.558 17.84,81.558 0.709,59.573 84.265,59.573 "/>
<polygon fill="#295936" points="17.84,81.558 0.709,59.589 0.709,9.883 17.84,31.551 "/>
<polygon fill="#295936" points="36.184,73.201 17.616,69.677 17.616,52.576 36.184,56.099 "/>
<polygon fill="#287F46" points="33.315,73.03 20.427,69.676 20.427,52.575 33.315,55.928 "/>
<polygon fill="#295936" points="59.083,73.201 40.515,69.677 40.515,52.576 59.083,56.099 "/>
<polygon fill="#295936" points="81.496,73.201 62.928,69.677 62.928,52.576 81.496,56.099 "/>
<path fill="#C9E635" d="M101.395,81.558H17.84L0.709,59.573h83.556L101.395,81.558z M83.292,60.701H2.904l15.609,19.642
	l80.091,0.094L83.292,60.701z"/>
<polygon fill="#287F46" points="101.395,81.558 84.265,59.589 84.265,9.883 101.395,31.551 "/>
<polygon fill="#287F46" points="56.243,73.03 43.355,69.676 43.355,52.575 56.243,55.928 "/>
<polygon fill="#287F46" points="78.9,73.03 66.012,69.676 66.012,52.575 78.9,55.928 "/>
<rect x="0.709" y="9.883" fill="#C9E635" width="83.556" height="49.69"/>
<polygon fill="#C9E635" points="83.292,60.701 2.904,60.701 0.709,59.573 84.265,59.573 "/>
<circle fill="#295936" cx="52.231" cy="33.523" r="23.542"/>
<path d="M22.845,65.956c4.781,0,10.258,2.172,12.695,5.297c1.759,2.256-0.194,5.18-4.526,5.18c-4.955,0-10.398-2.065-12.555-4.83
	C16.322,68.861,18.063,65.956,22.845,65.956z"/>
<path fill="#C9E635" d="M22.845,65.956c4.781,0,10.258,2.172,12.695,5.297c1.759,2.256-0.194,5.18-4.526,5.18
	c-4.955,0-10.398-2.065-12.555-4.83C16.322,68.861,18.063,65.956,22.845,65.956z M19.526,71.738
	c1.886,2.418,6.646,4.224,10.978,4.224c3.788,0,5.496-2.557,3.958-4.53c-2.131-2.733-6.92-4.632-11.101-4.632
	S17.658,69.342,19.526,71.738z"/>
<path d="M45.773,65.956c4.781,0,10.258,2.172,12.695,5.297c1.759,2.256-0.194,5.18-4.526,5.18c-4.955,0-10.398-2.065-12.555-4.83
	C39.251,68.861,40.991,65.956,45.773,65.956z"/>
<path d="M68.186,65.956c4.781,0,10.258,2.172,12.695,5.297c1.759,2.256-0.194,5.18-4.526,5.18c-4.955,0-10.398-2.065-12.555-4.83
	C61.663,68.861,63.404,65.956,68.186,65.956z"/>
<circle fill="#0D8AC7" cx="50.067" cy="30.892" r="23.542"/>
<circle cx="50.067" cy="30.892" r="17.827"/>
<circle fill="#3F3691" cx="50.067" cy="30.892" r="13.344"/>
<g>
	<g>
		<defs>
			<path id="SVGID_1_" d="M50.067,7.35c-13.002,0-23.542,10.54-23.542,23.542s10.54,23.542,23.542,23.542
				s23.542-10.54,23.542-23.542S63.069,7.35,50.067,7.35z M50.067,48.719c-9.846,0-17.827-7.982-17.827-17.827
				c0-9.846,7.982-17.827,17.827-17.827c9.846,0,17.827,7.982,17.827,17.827C67.894,40.738,59.913,48.719,50.067,48.719z"/>
		</defs>
		<clipPath id="SVGID_2_">
			<use xlink:href="#SVGID_1_"  overflow="visible"/>
		</clipPath>
		<polygon clip-path="url(#SVGID_2_)" fill="#81007B" points="26.602,8.307 50.282,-1.835 50.154,30.893 		"/>
	</g>
	<g>
		<defs>
			<path id="SVGID_3_" d="M50.067,7.35c-13.002,0-23.542,10.54-23.542,23.542s10.54,23.542,23.542,23.542
				s23.542-10.54,23.542-23.542S63.069,7.35,50.067,7.35z M50.067,48.719c-9.846,0-17.827-7.982-17.827-17.827
				c0-9.846,7.982-17.827,17.827-17.827c9.846,0,17.827,7.982,17.827,17.827C67.894,40.738,59.913,48.719,50.067,48.719z"/>
		</defs>
		<clipPath id="SVGID_4_">
			<use xlink:href="#SVGID_3_"  overflow="visible"/>
		</clipPath>
		<polygon clip-path="url(#SVGID_4_)" fill="#F2CD37" points="50.113,-1.79 73.667,7.47 50.067,30.938 		"/>
	</g>
	<g>
		<defs>
			<path id="SVGID_5_" d="M50.067,7.35c-13.002,0-23.542,10.54-23.542,23.542s10.54,23.542,23.542,23.542
				s23.542-10.54,23.542-23.542S63.069,7.35,50.067,7.35z M50.067,48.719c-9.846,0-17.827-7.982-17.827-17.827
				c0-9.846,7.982-17.827,17.827-17.827c9.846,0,17.827,7.982,17.827,17.827C67.894,40.738,59.913,48.719,50.067,48.719z"/>
		</defs>
		<clipPath id="SVGID_6_">
			<use xlink:href="#SVGID_5_"  overflow="visible"/>
		</clipPath>
		<polygon clip-path="url(#SVGID_6_)" fill="#A863B2" points="72.447,54.265 50.512,63.722 49.94,30.999 		"/>
	</g>
	<g>
		<defs>
			<path id="SVGID_7_" d="M50.067,7.35c-13.002,0-23.542,10.54-23.542,23.542s10.54,23.542,23.542,23.542
				s23.542-10.54,23.542-23.542S63.069,7.35,50.067,7.35z M50.067,48.719c-9.846,0-17.827-7.982-17.827-17.827
				c0-9.846,7.982-17.827,17.827-17.827c9.846,0,17.827,7.982,17.827,17.827C67.894,40.738,59.913,48.719,50.067,48.719z"/>
		</defs>
		<clipPath id="SVGID_8_">
			<use xlink:href="#SVGID_7_"  overflow="visible"/>
		</clipPath>
		<polygon clip-path="url(#SVGID_8_)" fill="#FFA70B" points="50.679,63.674 26.602,53.982 50.026,30.952 		"/>
	</g>
	<g>
		<defs>
			<path id="SVGID_9_" d="M50.067,7.35c-13.002,0-23.542,10.54-23.542,23.542s10.54,23.542,23.542,23.542
				s23.542-10.54,23.542-23.542S63.069,7.35,50.067,7.35z M50.067,48.719c-9.846,0-17.827-7.982-17.827-17.827
				c0-9.846,7.982-17.827,17.827-17.827c9.846,0,17.827,7.982,17.827,17.827C67.894,40.738,59.913,48.719,50.067,48.719z"/>
		</defs>
		<clipPath id="SVGID_10_">
			<use xlink:href="#SVGID_9_"  overflow="visible"/>
		</clipPath>
		<polygon clip-path="url(#SVGID_10_)" fill="#C91A09" points="73.667,7.47 82.718,31.234 49.99,31.106 		"/>
	</g>
	<g>
		<defs>
			<path id="SVGID_11_" d="M50.067,7.35c-13.002,0-23.542,10.54-23.542,23.542s10.54,23.542,23.542,23.542
				s23.542-10.54,23.542-23.542S63.069,7.35,50.067,7.35z M50.067,48.719c-9.846,0-17.827-7.982-17.827-17.827
				c0-9.846,7.982-17.827,17.827-17.827c9.846,0,17.827,7.982,17.827,17.827C67.894,40.738,59.913,48.719,50.067,48.719z"/>
		</defs>
		<clipPath id="SVGID_12_">
			<use xlink:href="#SVGID_11_"  overflow="visible"/>
		</clipPath>
		<polygon clip-path="url(#SVGID_12_)" fill="#078BC9" points="82.674,31.065 72.447,54.265 49.946,31.019 		"/>
	</g>
	<g>
		<defs>
			<path id="SVGID_13_" d="M50.067,7.35c-13.002,0-23.542,10.54-23.542,23.542s10.54,23.542,23.542,23.542
				s23.542-10.54,23.542-23.542S63.069,7.35,50.067,7.35z M50.067,48.719c-9.846,0-17.827-7.982-17.827-17.827
				c0-9.846,7.982-17.827,17.827-17.827c9.846,0,17.827,7.982,17.827,17.827C67.894,40.738,59.913,48.719,50.067,48.719z"/>
		</defs>
		<clipPath id="SVGID_14_">
			<use xlink:href="#SVGID_13_"  overflow="visible"/>
		</clipPath>
		<polygon clip-path="url(#SVGID_14_)" fill="#C91A09" points="26.602,53.982 17.162,31.464 49.885,30.892 		"/>
	</g>
	<g>
		<defs>
			<path id="SVGID_15_" d="M50.067,7.35c-13.002,0-23.542,10.54-23.542,23.542s10.54,23.542,23.542,23.542
				s23.542-10.54,23.542-23.542S63.069,7.35,50.067,7.35z M50.067,48.719c-9.846,0-17.827-7.982-17.827-17.827
				c0-9.846,7.982-17.827,17.827-17.827c9.846,0,17.827,7.982,17.827,17.827C67.894,40.738,59.913,48.719,50.067,48.719z"/>
		</defs>
		<clipPath id="SVGID_16_">
			<use xlink:href="#SVGID_15_"  overflow="visible"/>
		</clipPath>
		<polygon clip-path="url(#SVGID_16_)" fill="#078BC9" points="17.21,31.631 26.602,8.307 49.931,30.978 		"/>
	</g>
</g>
<path fill="#C9E635" d="M45.773,65.956c4.781,0,10.258,2.172,12.695,5.297c1.759,2.256-0.194,5.18-4.526,5.18
	c-4.955,0-10.398-2.065-12.555-4.83C39.251,68.861,40.991,65.956,45.773,65.956z M42.455,71.738
	c1.886,2.418,6.646,4.224,10.978,4.224c3.788,0,5.496-2.557,3.958-4.53C55.26,68.699,50.471,66.8,46.29,66.8
	S40.586,69.342,42.455,71.738z"/>
<path fill="#C9E635" d="M68.186,65.956c4.781,0,10.258,2.172,12.695,5.297c1.759,2.256-0.194,5.18-4.526,5.18
	c-4.955,0-10.398-2.065-12.555-4.83C61.663,68.861,63.404,65.956,68.186,65.956z M64.867,71.738
	c1.886,2.418,6.646,4.224,10.978,4.224c3.788,0,5.496-2.557,3.958-4.53c-2.131-2.733-6.92-4.632-11.101-4.632
	S62.999,69.342,64.867,71.738z"/>
<rect x="6.283" y="14.778" fill="#F4F4F4" width="15.196" height="8.645"/>
<g>
	<g>
		<defs>
			<path id="SVGID_17_" d="M243.52,80.563c-3.78,0-7.081-2.949-9.813-8.765c-2.493-5.308-4.112-12.108-5.143-18.054
				c-0.422,0.058-0.848,0.125-1.279,0.199c-2.544,0.437-4.777,0.665-6.735,0.729c-2.666,6.843-4.838,12.115-4.868,12.187
				c-0.213,0.517-0.804,0.763-1.322,0.55c-0.517-0.213-0.763-0.805-0.55-1.322c0.029-0.07,2.041-4.953,4.566-11.414
				c-7.509-0.248-10.252-3.198-11.253-5.289c-1.565-3.268-0.158-6.942,2.041-8.882c2.224-1.963,5.113-2.212,7.541-0.652
				c0.47,0.302,0.606,0.929,0.304,1.399c-0.302,0.47-0.928,0.606-1.399,0.304c-2.389-1.536-4.367-0.186-5.106,0.467
				c-1.629,1.437-2.686,4.128-1.555,6.49c0.672,1.404,2.916,4.095,10.208,4.157c0.859-2.216,1.756-4.567,2.642-6.938
				c2.216-5.936,3.733-10.335,4.765-13.593c-0.032-4.689,0.291-9.001,1.387-10.322c0.415-0.5,0.984-0.702,1.557-0.553
				c0.403,0.104,0.735,0.382,0.935,0.782c0.29,0.582,0.863,1.727-1.864,10.423c0.021,2.564,0.161,5.7,0.491,9.466
				c0.29,3.316,0.684,6.534,1.168,9.593c5.95-0.497,14.119,0.287,19.031,6.923c3.614,4.884,4.331,11.882,1.743,17.018
				C249.379,78.706,246.648,80.563,243.52,80.563z M230.571,53.523c1.192,6.807,2.836,12.714,4.769,16.982
				c2.415,5.331,5.167,8.034,8.18,8.034c3.198,0,4.934-2.496,5.684-3.984c1.847-3.665,2.146-9.891-1.562-14.902
				C244.218,55.027,238.226,52.901,230.571,53.523z M226.757,37.958c-0.82,2.369-1.803,5.102-2.98,8.258
				c-0.811,2.175-1.634,4.336-2.429,6.396c1.644-0.093,3.498-0.304,5.593-0.664c0.408-0.07,0.839-0.137,1.291-0.2
				c-0.602-3.823-0.957-7.147-1.148-9.271C226.965,41.143,226.85,39.596,226.757,37.958z"/>
		</defs>
		<clipPath id="SVGID_18_">
			<use xlink:href="#SVGID_17_"  overflow="visible"/>
		</clipPath>
		<g clip-path="url(#SVGID_18_)">
			<rect x="203.723" y="19.826" fill="#078BC9" width="61.715" height="6.172"/>
			<rect x="203.714" y="63.14" fill="#078BC9" width="61.756" height="6.172"/>
			<rect x="203.729" y="38.389" fill="#9AA09C" width="61.741" height="6.172"/>
			<rect x="203.736" y="50.765" fill="#FFA70B" width="61.703" height="6.172"/>
			<rect x="203.727" y="26.014" fill="#BBE90B" width="61.711" height="6.172"/>
			<rect x="203.718" y="69.328" fill="#287F46" width="61.72" height="6.172"/>
			<rect x="203.734" y="44.577" fill="#A863B2" width="61.705" height="6.172"/>
			<rect x="203.74" y="56.952" fill="#81007B" width="61.731" height="6.172"/>
			<rect x="203.727" y="32.201" fill="#C91A09" width="61.711" height="6.172"/>
			<rect x="234.536" y="75.515" fill="#3F3691" width="18.555" height="6.172"/>
		</g>
	</g>
</g>
<g enable-background="new    ">
	<path d="M115.278,35.526c0-1.305,0.989-2.215,2.294-2.215h5.616c5.181,0,8.187,2.927,8.187,7.594c0,2.57-1.701,4.825-3.045,5.576
		c1.582,0.713,3.876,2.809,3.876,5.854c0,4.904-3.441,7.871-8.938,7.871h-5.695c-1.305,0-2.294-0.91-2.294-2.215V35.526z
		 M123.188,37.662h-3.006v6.724h3.006c2.333,0,3.362-1.305,3.362-3.48C126.55,38.928,125.443,37.662,123.188,37.662z
		 M123.268,48.657h-3.085v7.198h3.085c2.689,0,4.113-1.147,4.113-3.521C127.381,49.884,125.957,48.657,123.268,48.657z"/>
	<path d="M141.7,57.991c0,1.345-1.028,2.294-2.452,2.294s-2.452-0.949-2.452-2.294V35.526c0-1.266,0.91-2.215,2.215-2.215h5.419
		c5.022,0,8.938,3.125,8.938,8.306c0,4.351-2.571,6.685-4.549,7.673l-0.079,0.119l4.509,7c0.237,0.355,0.515,0.988,0.515,1.582
		c0,1.266-1.107,2.294-2.61,2.294c-0.989,0-1.701-0.633-2.215-1.503l-5.023-8.662H141.7V57.991z M144.43,37.741H141.7v7.949h2.729
		c2.531,0,4.034-1.582,4.034-4.073C148.464,39.165,146.842,37.741,144.43,37.741z"/>
	<path d="M163.416,57.991c0,1.345-1.028,2.294-2.452,2.294s-2.452-0.949-2.452-2.294V35.526c0-1.345,1.028-2.294,2.452-2.294
		s2.452,0.949,2.452,2.294V57.991z"/>
</g>
<g enable-background="new    ">
	<path d="M173.779,51.782c0,2.609,1.938,4.231,3.994,4.231c1.068,0,2.215-0.633,2.967-1.067c0.435-0.238,0.949-0.515,1.621-0.515
		c1.345,0,2.176,1.147,2.176,2.333c0,0.791-0.475,1.504-1.266,2.018c-1.424,0.91-3.362,1.74-5.498,1.74
		c-4.588,0-8.898-3.48-8.898-8.74V41.775c0-5.3,4.311-8.78,8.898-8.78c2.176,0,4.034,0.83,5.458,1.74
		c0.791,0.514,1.306,1.266,1.306,2.057c0,1.187-0.831,2.254-2.176,2.254c-0.672,0-1.384-0.355-1.819-0.633
		c-0.791-0.514-1.621-0.909-2.769-0.909c-2.057,0-3.994,1.7-3.994,4.271V51.782z"/>
</g>
<g enable-background="new    ">
	<path d="M193.715,44.188c0,0.197,0.158,0.316,0.316,0.316s0.316-0.198,0.435-0.356l7.001-9.729
		c0.475-0.672,1.187-1.187,2.096-1.187c1.464,0,2.452,1.028,2.452,2.333c0,0.515-0.158,1.068-0.396,1.385l-7.436,9.729l7.356,9.532
		c0.515,0.633,0.633,1.107,0.633,1.7c0,1.306-1.067,2.373-2.531,2.373c-0.988,0-1.7-0.554-2.175-1.226l-6.922-9.374
		c-0.118-0.198-0.355-0.356-0.514-0.356c-0.198,0-0.316,0.158-0.316,0.316v8.346c0,1.345-1.028,2.294-2.452,2.294
		s-2.452-0.949-2.452-2.294V35.526c0-1.345,1.028-2.294,2.452-2.294s2.452,0.949,2.452,2.294V44.188z"/>
</g>
<g enable-background="new    ">
	<path d="M242.682,57.989c0,1.345-1.028,2.294-2.452,2.294s-2.452-0.949-2.452-2.294V35.524c0-1.305,0.949-2.215,2.215-2.215h5.616
		c5.062,0,8.859,3.361,8.859,8.701s-3.599,8.662-8.859,8.662h-2.927V57.989z M245.608,37.739h-2.927v8.504h2.927
		c2.61,0,3.955-1.898,3.955-4.232S248.101,37.739,245.608,37.739z"/>
</g>
<g enable-background="new    ">
	<path d="M264.477,57.989c0,1.345-1.028,2.294-2.452,2.294s-2.452-0.949-2.452-2.294V35.524c0-1.345,1.028-2.294,2.452-2.294
		s2.452,0.949,2.452,2.294V57.989z"/>
	<path d="M274.84,51.78c0,2.609,1.938,4.231,3.995,4.231c1.067,0,2.215-0.633,2.966-1.067c0.436-0.238,0.949-0.515,1.622-0.515
		c1.345,0,2.175,1.147,2.175,2.333c0,0.791-0.475,1.504-1.266,2.018c-1.424,0.91-3.361,1.74-5.497,1.74
		c-4.588,0-8.899-3.48-8.899-8.74V41.773c0-5.3,4.312-8.78,8.899-8.78c2.175,0,4.034,0.83,5.458,1.74
		c0.791,0.514,1.305,1.266,1.305,2.057c0,1.187-0.83,2.254-2.175,2.254c-0.673,0-1.385-0.355-1.819-0.633
		c-0.791-0.514-1.622-0.909-2.769-0.909c-2.057,0-3.995,1.7-3.995,4.271V51.78z"/>
</g>
</svg>
